<svg xmlns="http://www.w3.org/2000/svg" viewBox="0 -0.5 31 15" shape-rendering="crispEdges">
<metadata>Made with Pixels to Svg https://codepen.io/shshaw/pen/XbxvNj</metadata>
<path stroke="#000000" d="M10 0h4M10 1h1M14 1h2M8 2h2M16 2h2M7 3h1M18 3h1M6 4h1M19 4h1M5 5h1M20 5h1M23 5h3M5 6h1M21 6h2M26 6h1M5 7h1M27 7h1M3 8h2M28 8h1M2 9h1M29 9h1M1 10h1M30 10h1M0 11h1M30 11h1M0 12h1M30 12h1M1 13h1M29 13h1M2 14h27" />
<path stroke="#ffffff" d="M11 1h2M10 2h4M8 3h8M7 4h10M7 5h10M8 6h8M23 6h2M9 7h2M13 7h2M22 7h5M22 8h6M3 9h2M22 9h6M2 10h4M22 10h5M1 11h5M23 11h2M2 12h3" />
<path stroke="#f5f5f5" d="M13 1h1M6 5h1M25 6h1M28 9h1" />
<path stroke="#e6e6e6" d="M14 2h2M16 3h2M17 4h2M17 5h3M6 6h2M16 6h5M6 7h3M11 7h2M15 7h7M5 8h12M19 8h3M5 9h11M18 9h4M6 10h9M16 10h6M27 10h3M6 11h8M15 11h8M25 11h4M7 12h20M6 13h17" />
<path stroke="#6d8bc8" d="M17 8h2M16 9h2M15 10h1M14 11h1M29 11h1M1 12h1M5 12h2M27 12h3M2 13h4M23 13h6" />
</svg>