<svg xmlns="http://www.w3.org/2000/svg" viewBox="0 -0.5 32 12" shape-rendering="crispEdges">
<metadata>Made with Pixels to Svg https://codepen.io/shshaw/pen/XbxvNj</metadata>
<path stroke="#000000" d="M17 0h5M16 1h1M22 1h1M15 2h1M23 2h1M14 3h1M24 3h1M9 4h3M13 4h1M25 4h1M8 5h1M12 5h1M25 5h1M7 6h1M26 6h2M6 7h1M28 7h1M3 8h3M29 8h1M2 9h1M30 9h1M1 10h1M31 10h1M0 11h32" />
<path stroke="#ffffff" d="M17 1h4M16 2h6M15 3h8M14 4h9M9 5h3M14 5h9M8 6h5M14 6h9M7 7h6M15 7h8M7 8h6M18 8h4M3 9h2M8 9h4" />
<path stroke="#e6e6e6" d="M21 1h1M22 2h1M23 3h1M23 4h2M13 5h1M23 5h2M13 6h1M23 6h3M13 7h2M23 7h5M6 8h1M13 8h5M22 8h2M26 8h3M5 9h3M12 9h11M27 9h3M5 10h8M29 10h2" />
<path stroke="#6d8bc8" d="M24 8h2M23 9h4M2 10h3M13 10h16" />
</svg>