<svg xmlns="http://www.w3.org/2000/svg" viewBox="0 -0.5 64 64" shape-rendering="crispEdges">
<metadata>Made with Pixels to Svg https://codepen.io/shshaw/pen/XbxvNj</metadata>
<path stroke="#000000" d="M23 10h14M22 11h1M37 11h1M21 12h1M38 12h1M21 13h1M38 13h1M21 14h1M26 14h8M38 14h1M21 15h1M25 15h10M38 15h1M21 16h1M38 16h1M21 17h18M21 18h1M24 18h1M35 18h1M38 18h1M21 19h1M23 19h1M36 19h1M38 19h1M21 20h2M37 20h2M21 21h1M38 21h1M21 22h1M38 22h1M21 23h1M38 23h1M16 24h4M21 24h1M38 24h1M40 24h4M16 25h1M19 25h1M21 25h1M38 25h1M40 25h1M43 25h1M16 26h1M19 26h1M21 26h1M38 26h1M40 26h1M43 26h1M16 27h4M22 27h1M37 27h1M40 27h4M16 28h1M19 28h1M23 28h1M36 28h1M40 28h1M43 28h1M16 29h1M19 29h1M23 29h14M40 29h1M43 29h1M16 30h1M19 30h2M22 30h1M37 30h1M39 30h2M43 30h1M16 31h1M21 31h1M38 31h1M43 31h1M17 32h1M21 32h1M38 32h1M42 32h1M17 33h1M21 33h1M38 33h1M42 33h1M18 34h1M21 34h1M38 34h1M41 34h1M19 35h3M38 35h3M21 36h1M38 36h1M21 37h1M38 37h1M21 38h1M38 38h1M21 39h18M21 40h1M38 40h1M20 41h1M39 41h1M19 42h1M40 42h1M18 43h1M20 43h1M26 43h8M39 43h1M41 43h1M17 44h1M21 44h1M25 44h1M34 44h1M38 44h1M42 44h1M18 45h1M22 45h1M24 45h1M35 45h1M37 45h1M41 45h1M19 46h1M23 46h1M36 46h1M40 46h1M20 47h1M22 47h1M37 47h1M39 47h1M21 48h1M38 48h1" />
<path stroke="#ffb304" d="M23 11h14M22 12h16M22 13h16M22 14h4M34 14h4M22 15h3M35 15h3M22 16h16" />
<path stroke="#2b2828" d="M22 18h2M36 18h2M22 19h1M37 19h1" />
<path stroke="#f2ac64" d="M25 18h10M24 19h12M23 20h2M27 20h6M35 20h2M22 21h3M27 21h6M35 21h3M22 22h3M27 22h6M35 22h3M22 23h16M22 24h16M17 25h2M22 25h16M41 25h2M17 26h2M22 26h16M41 26h2M23 27h14M24 28h12" />
<path stroke="#644723" d="M25 20h2M33 20h2M25 21h2M33 21h2M25 22h2M33 22h2" />
<path stroke="#ff281f" d="M17 28h2M41 28h2M17 29h2M41 29h2M17 30h2M23 30h14M41 30h2M17 31h4M22 31h16M39 31h4M18 32h3M22 32h16M39 32h3M18 33h3M22 33h16M39 33h3M19 34h2M22 34h16M39 34h2M22 35h16M22 36h16M22 37h16M22 38h16" />
<path stroke="#b60400" d="M22 40h16M21 41h18M20 42h20M21 43h5M34 43h5M22 44h3M35 44h3M23 45h1M36 45h1" />
<path stroke="#ffffff" d="M19 43h1M40 43h1M20 44h1M39 44h1M21 45h1M38 45h1M22 46h1M37 46h1" />
<path stroke="#cccccc" d="M18 44h2M40 44h2M19 45h2M39 45h2M20 46h2M38 46h2M21 47h1M38 47h1" />
</svg>