<svg xmlns="http://www.w3.org/2000/svg" viewBox="0 -0.5 28 38" shape-rendering="crispEdges">
<metadata>Made with Pixels to Svg https://codepen.io/shshaw/pen/XbxvNj</metadata>
<path stroke="#000000" d="M4 0h17M3 1h1M21 1h1M2 2h1M22 2h1M2 3h1M22 3h1M2 4h1M4 4h5M22 4h1M2 5h1M4 5h6M22 5h1M2 6h1M22 6h1M2 7h22M3 8h1M23 8h4M3 9h1M3 10h1M3 11h1M23 11h1M3 12h1M23 12h1M3 13h1M22 13h1M3 14h1M22 14h1M3 15h1M22 15h1M3 16h1M20 16h2M4 17h1M20 17h1M5 18h1M19 18h1M6 19h14M5 20h1M20 20h1M3 21h2M21 21h2M2 22h3M21 22h3M1 23h1M4 23h1M21 23h1M24 23h1M1 24h1M4 24h1M21 24h1M24 24h1M1 25h1M4 25h1M21 25h1M24 25h1M1 26h1M4 26h1M21 26h1M24 26h1M1 27h4M21 27h4M1 28h1M4 28h1M21 28h1M24 28h1M1 29h1M4 29h18M24 29h1M1 30h4M21 30h4M4 31h1M21 31h1M4 32h1M21 32h1M4 33h1M9 33h7M21 33h1M4 34h1M9 34h1M16 34h1M21 34h1M4 35h1M8 35h2M16 35h1M20 35h2M4 36h1M8 36h1M16 36h1M20 36h1M4 37h2M8 37h1M16 37h1M19 37h2" />
<path stroke="#ffb305" d="M4 1h17M3 2h19M3 3h19M3 4h1M9 4h13M3 5h1M10 5h12M3 6h19" />
<path stroke="#f2ac64" d="M4 8h9M4 9h12M4 10h2M8 10h5M15 10h2M4 11h2M8 11h5M15 11h3M4 12h2M8 12h5M15 12h4M4 13h16M4 14h16M4 15h16M4 16h16M5 17h15M6 18h13M2 28h2M22 28h2M2 29h2M22 29h2" />
<path stroke="#e67d43" d="M13 8h3M16 9h2M17 10h2M18 11h2M19 12h2M20 13h2M20 14h2M20 15h2" />
<path stroke="#0c0c0c" d="M16 8h2M22 8h1M18 9h2M22 9h1M19 10h1M21 10h2M20 11h2M21 12h1" />
<path stroke="#2e2c2c" d="M18 8h4M20 9h2M20 10h1" />
<path stroke="#644729" d="M6 10h2M13 10h2M6 11h2M13 11h2M6 12h2M13 12h2" />
<path stroke="#f07839" d="M22 11h1M22 12h1" />
<path stroke="#ff2c26" d="M6 20h14M5 21h16M5 22h16M2 23h2M5 23h16M22 23h2M2 24h2M5 24h16M22 24h2M2 25h2M5 25h16M22 25h2M2 26h2M5 26h16M22 26h2M5 27h16M5 28h16" />
<path stroke="#b60600" d="M5 30h16M5 31h16M5 32h16M5 33h4M16 33h5M5 34h4M17 34h4M5 35h1M7 35h1M17 35h1" />
<path stroke="#b60603" d="M6 35h1M18 35h1" />
<path stroke="#b70704" d="M19 35h1" />
<path stroke="#ffffff" d="M5 36h3M19 36h1" />
<path stroke="rgba(254,254,254,0.996078431372549)" d="M17 36h2" />
<path stroke="#040404" d="M6 37h1" />
<path stroke="#141414" d="M7 37h1" />
<path stroke="#1e1e1e" d="M17 37h2" />
</svg>