<svg xmlns="http://www.w3.org/2000/svg" viewBox="0 -0.5 64 64" shape-rendering="crispEdges">
<metadata>Made with Pixels to Svg https://codepen.io/shshaw/pen/XbxvNj</metadata>
<path stroke="#000000" d="M21 10h17M20 11h1M38 11h1M19 12h1M39 12h1M19 13h1M39 13h1M19 14h1M21 14h5M39 14h1M19 15h1M21 15h6M39 15h1M19 16h1M39 16h1M19 17h22M20 18h1M40 18h4M20 19h1M20 20h1M20 21h1M40 21h1M20 22h1M40 22h1M20 23h1M39 23h1M20 24h1M39 24h1M20 25h1M39 25h1M20 26h1M37 26h2M21 27h1M37 27h1M22 28h1M36 28h1M23 29h14M22 30h1M37 30h1M20 31h2M38 31h2M19 32h3M38 32h3M18 33h1M21 33h1M38 33h1M41 33h1M18 34h1M21 34h1M38 34h1M41 34h1M18 35h1M21 35h1M38 35h1M41 35h1M18 36h1M21 36h1M38 36h1M41 36h1M18 37h4M38 37h4M18 38h1M21 38h1M38 38h1M41 38h1M18 39h1M21 39h18M41 39h1M18 40h4M38 40h4M21 41h1M38 41h1M21 42h1M38 42h1M21 43h1M26 43h7M38 43h1M21 44h1M26 44h1M33 44h1M38 44h1M21 45h1M25 45h2M33 45h1M37 45h2M21 46h1M25 46h1M33 46h1M37 46h1M21 47h5M33 47h5" />
<path stroke="#ffb305" d="M21 11h17M20 12h19M20 13h19M20 14h1M26 14h13M20 15h1M27 15h12M20 16h19" />
<path stroke="#f2ac64" d="M21 18h9M21 19h12M21 20h2M25 20h5M32 20h2M21 21h2M25 21h5M32 21h3M21 22h2M25 22h5M32 22h4M21 23h16M21 24h16M21 25h16M21 26h16M22 27h15M23 28h13M19 38h2M39 38h2M19 39h2M39 39h2" />
<path stroke="#e67d43" d="M30 18h3M33 19h2M34 20h2M35 21h2M36 22h2M37 23h2M37 24h2M37 25h2" />
<path stroke="#0c0c0c" d="M33 18h2M39 18h1M35 19h2M39 19h1M36 20h1M38 20h2M37 21h2M38 22h1" />
<path stroke="#2e2c2c" d="M35 18h4M37 19h2M37 20h1" />
<path stroke="#644729" d="M23 20h2M30 20h2M23 21h2M30 21h2M23 22h2M30 22h2" />
<path stroke="#f07839" d="M39 21h1M39 22h1" />
<path stroke="#ff2c26" d="M23 30h14M22 31h16M22 32h16M19 33h2M22 33h16M39 33h2M19 34h2M22 34h16M39 34h2M19 35h2M22 35h16M39 35h2M19 36h2M22 36h16M39 36h2M22 37h16M22 38h16" />
<path stroke="#b60600" d="M22 40h16M22 41h16M22 42h16M22 43h4M33 43h5M22 44h4M34 44h4M22 45h3M34 45h3" />
<path stroke="#ffffff" d="M22 46h3M34 46h3" />
</svg>