<svg xmlns="http://www.w3.org/2000/svg" viewBox="0 -0.5 64 64" shape-rendering="crispEdges">
<metadata>Made with Pixels to Svg https://codepen.io/shshaw/pen/XbxvNj</metadata>
<path stroke="#000000" d="M26 10h17M25 11h1M43 11h1M24 12h1M44 12h1M24 13h1M44 13h1M24 14h1M38 14h5M44 14h1M24 15h1M37 15h6M44 15h1M24 16h1M44 16h1M23 17h22M20 18h4M43 18h1M43 19h1M43 20h1M23 21h1M43 21h1M23 22h1M43 22h1M24 23h1M43 23h1M24 24h1M43 24h1M24 25h1M43 25h1M25 26h2M43 26h1M26 27h1M42 27h1M27 28h1M41 28h1M27 29h14M26 30h1M41 30h1M24 31h2M42 31h2M23 32h3M42 32h3M22 33h1M25 33h1M42 33h1M45 33h1M22 34h1M25 34h1M42 34h1M45 34h1M22 35h1M25 35h1M42 35h1M45 35h1M22 36h1M25 36h1M42 36h1M45 36h1M22 37h4M42 37h4M22 38h1M25 38h1M42 38h1M45 38h1M22 39h1M25 39h18M45 39h1M22 40h4M42 40h4M25 41h1M42 41h1M25 42h1M42 42h1M25 43h1M31 43h7M42 43h1M25 44h1M30 44h1M37 44h1M42 44h1M25 45h2M30 45h1M37 45h2M42 45h1M26 46h1M30 46h1M38 46h1M42 46h1M26 47h5M38 47h5" />
<path stroke="#ffb305" d="M26 11h17M25 12h19M25 13h19M25 14h13M43 14h1M25 15h12M43 15h1M25 16h19" />
<path stroke="#0c0c0c" d="M24 18h1M29 18h2M24 19h1M27 19h2M24 20h2M27 20h1M25 21h2M25 22h1" />
<path stroke="#2e2c2c" d="M25 18h4M25 19h2M26 20h1" />
<path stroke="#e67d43" d="M31 18h3M29 19h2M28 20h2M27 21h2M26 22h2M25 23h2M25 24h2M25 25h2" />
<path stroke="#f2ac64" d="M34 18h9M31 19h12M30 20h2M34 20h5M41 20h2M29 21h3M34 21h5M41 21h2M28 22h4M34 22h5M41 22h2M27 23h16M27 24h16M27 25h16M27 26h16M27 27h15M28 28h13M23 38h2M43 38h2M23 39h2M43 39h2" />
<path stroke="#644729" d="M32 20h2M39 20h2M32 21h2M39 21h2M32 22h2M39 22h2" />
<path stroke="#f07839" d="M24 21h1M24 22h1" />
<path stroke="#ff2c26" d="M27 30h14M26 31h16M26 32h16M23 33h2M26 33h16M43 33h2M23 34h2M26 34h16M43 34h2M23 35h2M26 35h16M43 35h2M23 36h2M26 36h16M43 36h2M26 37h16M26 38h16" />
<path stroke="#b60600" d="M26 40h16M26 41h16M26 42h16M26 43h5M38 43h4M26 44h4M38 44h4M27 45h3M39 45h3" />
<path stroke="#ffffff" d="M27 46h3M39 46h3" />
</svg>