<svg xmlns="http://www.w3.org/2000/svg" viewBox="0 -0.5 28 38" shape-rendering="crispEdges">
<metadata>Made with Pixels to Svg https://codepen.io/shshaw/pen/XbxvNj</metadata>
<path stroke="#000000" d="M9 0h14M8 1h1M23 1h1M7 2h1M24 2h1M7 3h1M24 3h1M7 4h1M12 4h8M24 4h1M7 5h1M11 5h10M24 5h1M7 6h1M24 6h1M7 7h18M7 8h1M10 8h1M21 8h1M24 8h1M7 9h1M9 9h1M22 9h1M24 9h1M7 10h2M23 10h2M7 11h1M24 11h1M7 12h1M24 12h1M7 13h1M24 13h1M7 14h1M24 14h1M7 15h1M24 15h1M7 16h1M24 16h1M8 17h1M23 17h1M9 18h1M22 18h1M9 19h14M8 20h1M23 20h1M6 21h2M24 21h2M5 22h3M24 22h3M4 23h1M7 23h1M24 23h1M27 23h1M4 24h1M7 24h1M24 24h1M27 24h1M4 25h1M7 25h1M24 25h1M27 25h1M4 26h1M7 26h1M24 26h1M27 26h1M4 27h4M24 27h4M4 28h1M7 28h1M24 28h1M27 28h1M4 29h1M7 29h18M27 29h1M4 30h4M24 30h4M7 31h1M24 31h1M7 32h1M24 32h1M7 33h1M13 33h6M24 33h1M7 34h1M12 34h1M19 34h1M24 34h1M7 35h1M12 35h1M19 35h1M24 35h1M7 36h1M12 36h1M19 36h1M24 36h1M7 37h6M19 37h6" />
<path stroke="#ffb304" d="M9 1h14M8 2h16M8 3h16M8 4h4M20 4h4M8 5h3M21 5h3M8 6h16" />
<path stroke="#2b2828" d="M8 8h2M22 8h2M8 9h1M23 9h1" />
<path stroke="#e67d42" d="M11 8h10" />
<path stroke="#f2ac64" d="M10 9h12M9 10h2M13 10h6M21 10h2M8 11h3M13 11h6M21 11h3M8 12h3M13 12h6M21 12h3M8 13h16M8 14h16M8 15h16M8 16h16M9 17h14M10 18h12M5 28h2M25 28h2M5 29h2M25 29h2" />
<path stroke="#644723" d="M11 10h2M19 10h2M11 11h2M19 11h2M11 12h2M19 12h2" />
<path stroke="#ff281f" d="M9 20h14M8 21h16M8 22h16M5 23h2M8 23h16M25 23h2M5 24h2M8 24h16M25 24h2M5 25h2M8 25h16M25 25h2M5 26h2M8 26h16M25 26h2M8 27h16M8 28h16" />
<path stroke="#b60400" d="M8 30h16M8 31h16M8 32h16M8 33h5M19 33h5M8 34h4M20 34h4M8 35h4M20 35h4" />
<path stroke="#ffffff" d="M8 36h4M20 36h4" />
</svg>