<svg xmlns="http://www.w3.org/2000/svg" viewBox="0 -0.5 28 38" shape-rendering="crispEdges">
<metadata>Made with Pixels to Svg https://codepen.io/shshaw/pen/XbxvNj</metadata>
<path stroke="#000000" d="M7 0h17M6 1h1M24 1h1M5 2h1M25 2h1M5 3h1M25 3h1M5 4h1M19 4h5M25 4h1M5 5h1M18 5h6M25 5h1M5 6h1M25 6h1M4 7h22M1 8h4M24 8h1M24 9h1M24 10h1M4 11h1M24 11h1M4 12h1M24 12h1M5 13h1M24 13h1M5 14h1M24 14h1M5 15h1M24 15h1M6 16h2M24 16h1M7 17h1M23 17h1M8 18h1M22 18h1M8 19h14M7 20h1M22 20h1M5 21h2M23 21h2M4 22h3M23 22h3M3 23h1M6 23h1M23 23h1M26 23h1M3 24h1M6 24h1M23 24h1M26 24h1M3 25h1M6 25h1M23 25h1M26 25h1M3 26h1M6 26h1M23 26h1M26 26h1M3 27h4M23 27h4M3 28h1M6 28h1M23 28h1M26 28h1M3 29h1M6 29h18M26 29h1M3 30h4M23 30h4M6 31h1M23 31h1M6 32h1M23 32h1M6 33h1M12 33h7M23 33h1M6 34h1M11 34h1M18 34h1M23 34h1M6 35h2M11 35h1M18 35h2M23 35h1M7 36h1M11 36h1M19 36h1M23 36h1M7 37h5M19 37h5" />
<path stroke="#ffb305" d="M7 1h17M6 2h19M6 3h19M6 4h13M24 4h1M6 5h12M24 5h1M6 6h19" />
<path stroke="#0c0c0c" d="M5 8h1M10 8h2M5 9h1M8 9h2M5 10h2M8 10h1M6 11h2M6 12h1" />
<path stroke="#2e2c2c" d="M6 8h4M6 9h2M7 10h1" />
<path stroke="#e67d43" d="M12 8h3M10 9h2M9 10h2M8 11h2M7 12h2M6 13h2M6 14h2M6 15h2" />
<path stroke="#f2ac64" d="M15 8h9M12 9h12M11 10h2M15 10h5M22 10h2M10 11h3M15 11h5M22 11h2M9 12h4M15 12h5M22 12h2M8 13h16M8 14h16M8 15h16M8 16h16M8 17h15M9 18h13M4 28h2M24 28h2M4 29h2M24 29h2" />
<path stroke="#644729" d="M13 10h2M20 10h2M13 11h2M20 11h2M13 12h2M20 12h2" />
<path stroke="#f07839" d="M5 11h1M5 12h1" />
<path stroke="#ff2c26" d="M8 20h14M7 21h16M7 22h16M4 23h2M7 23h16M24 23h2M4 24h2M7 24h16M24 24h2M4 25h2M7 25h16M24 25h2M4 26h2M7 26h16M24 26h2M7 27h16M7 28h16" />
<path stroke="#b60600" d="M7 30h16M7 31h16M7 32h16M7 33h5M19 33h4M7 34h4M19 34h4M8 35h3M20 35h3" />
<path stroke="#ffffff" d="M8 36h3M20 36h3" />
</svg>