<svg xmlns="http://www.w3.org/2000/svg" viewBox="0 -0.5 64 64" shape-rendering="crispEdges">
<metadata>Made with Pixels to Svg https://codepen.io/shshaw/pen/XbxvNj</metadata>
<path stroke="#000000" d="M23 9h14M22 10h1M37 10h1M21 11h1M38 11h1M21 12h1M38 12h1M21 13h1M26 13h8M38 13h1M21 14h1M25 14h10M38 14h1M21 15h1M38 15h1M21 16h18M21 17h1M24 17h1M35 17h1M38 17h1M21 18h1M23 18h1M36 18h1M38 18h1M21 19h2M37 19h2M21 20h1M38 20h1M21 21h1M38 21h1M21 22h1M38 22h1M16 23h4M21 23h1M38 23h1M40 23h4M16 24h1M19 24h1M21 24h1M38 24h1M40 24h1M43 24h1M16 25h1M19 25h1M21 25h1M38 25h1M40 25h1M43 25h1M16 26h4M22 26h1M37 26h1M40 26h4M16 27h1M19 27h1M23 27h1M36 27h1M40 27h1M43 27h1M16 28h1M19 28h1M23 28h14M40 28h1M43 28h1M16 29h1M19 29h2M22 29h1M37 29h1M39 29h2M43 29h1M16 30h1M21 30h1M38 30h1M43 30h1M17 31h1M21 31h1M38 31h1M42 31h1M17 32h1M21 32h1M38 32h1M42 32h1M18 33h1M21 33h1M38 33h1M41 33h1M19 34h3M38 34h3M21 35h1M38 35h1M21 36h1M38 36h1M21 37h1M38 37h1M21 38h18M21 39h1M38 39h1M20 40h1M39 40h1M19 41h1M40 41h1M18 42h1M20 42h1M26 42h8M39 42h1M41 42h1M17 43h1M21 43h1M25 43h1M34 43h1M38 43h1M42 43h1M18 44h1M22 44h1M24 44h1M35 44h1M37 44h1M41 44h1M19 45h1M23 45h1M36 45h1M40 45h1M20 46h1M22 46h1M37 46h1M39 46h1M21 47h1M38 47h1" />
<path stroke="#ffb304" d="M23 10h14M22 11h16M22 12h16M22 13h4M34 13h4M22 14h3M35 14h3M22 15h16" />
<path stroke="#2b2828" d="M22 17h2M36 17h2M22 18h1M37 18h1" />
<path stroke="#f2ac64" d="M25 17h10M24 18h12M23 19h2M27 19h6M35 19h2M22 20h3M27 20h6M35 20h3M22 21h3M27 21h6M35 21h3M22 22h16M22 23h16M17 24h2M22 24h16M41 24h2M17 25h2M22 25h16M41 25h2M23 26h14M24 27h12" />
<path stroke="#644723" d="M25 19h2M33 19h2M25 20h2M33 20h2M25 21h2M33 21h2" />
<path stroke="#ff281f" d="M17 27h2M41 27h2M17 28h2M41 28h2M17 29h2M23 29h14M41 29h2M17 30h4M22 30h16M39 30h4M18 31h3M22 31h16M39 31h3M18 32h3M22 32h16M39 32h3M19 33h2M22 33h16M39 33h2M22 34h16M22 35h16M22 36h16M22 37h16" />
<path stroke="#b60400" d="M22 39h16M21 40h18M20 41h20M21 42h5M34 42h5M22 43h3M35 43h3M23 44h1M36 44h1" />
<path stroke="#ffffff" d="M19 42h1M40 42h1M20 43h1M39 43h1M21 44h1M38 44h1M22 45h1M37 45h1" />
<path stroke="#cccccc" d="M18 43h2M40 43h2M19 44h2M39 44h2M20 45h2M38 45h2M21 46h1M38 46h1" />
</svg>