<svg xmlns="http://www.w3.org/2000/svg" viewBox="0 -0.5 28 38" shape-rendering="crispEdges">
<metadata>Made with Pixels to Svg https://codepen.io/shshaw/pen/XbxvNj</metadata>
<path stroke="#000000" d="M7 0h14M6 1h1M21 1h1M5 2h1M22 2h1M5 3h1M22 3h1M5 4h1M10 4h8M22 4h1M5 5h1M9 5h10M22 5h1M5 6h1M22 6h1M5 7h18M5 8h1M8 8h1M19 8h1M22 8h1M5 9h1M7 9h1M20 9h1M22 9h1M5 10h2M21 10h2M5 11h1M22 11h1M5 12h1M22 12h1M5 13h1M22 13h1M0 14h4M5 14h1M22 14h1M24 14h4M0 15h1M3 15h1M5 15h1M22 15h1M24 15h1M27 15h1M0 16h1M3 16h1M5 16h1M22 16h1M24 16h1M27 16h1M0 17h4M6 17h1M21 17h1M24 17h4M0 18h1M3 18h1M7 18h1M20 18h1M24 18h1M27 18h1M0 19h1M3 19h1M7 19h14M24 19h1M27 19h1M0 20h1M3 20h2M6 20h1M21 20h1M23 20h2M27 20h1M0 21h1M5 21h1M22 21h1M27 21h1M1 22h1M5 22h1M22 22h1M26 22h1M1 23h1M5 23h1M22 23h1M26 23h1M2 24h1M5 24h1M22 24h1M25 24h1M3 25h3M22 25h3M5 26h1M22 26h1M5 27h1M22 27h1M5 28h1M22 28h1M5 29h18M5 30h1M22 30h1M4 31h1M23 31h1M3 32h1M24 32h1M2 33h1M4 33h1M10 33h8M23 33h1M25 33h1M1 34h1M5 34h1M9 34h1M18 34h1M22 34h1M26 34h1M2 35h1M6 35h1M8 35h1M19 35h1M21 35h1M25 35h1M3 36h1M7 36h1M20 36h1M24 36h1M4 37h3M23 37h1" />
<path stroke="#ffb304" d="M7 1h14M6 2h16M6 3h16M6 4h4M18 4h4M6 5h3M19 5h3M6 6h16" />
<path stroke="#2b2828" d="M6 8h2M20 8h2M6 9h1M21 9h1" />
<path stroke="#f2ac64" d="M9 8h10M8 9h12M7 10h2M11 10h6M19 10h2M6 11h3M11 11h6M19 11h3M6 12h3M11 12h6M19 12h3M6 13h16M6 14h16M1 15h2M6 15h16M25 15h2M1 16h2M6 16h16M25 16h2M7 17h14M8 18h12" />
<path stroke="#644723" d="M9 10h2M17 10h2M9 11h2M17 11h2M9 12h2M17 12h2" />
<path stroke="#ff281f" d="M1 18h2M25 18h2M1 19h2M25 19h2M1 20h2M7 20h14M25 20h2M1 21h4M6 21h16M23 21h4M2 22h3M6 22h16M23 22h3M2 23h3M6 23h16M23 23h3M3 24h2M6 24h16M23 24h2M6 25h16M6 26h16M6 27h16M6 28h16" />
<path stroke="#b60400" d="M6 30h16M5 31h18M4 32h20M5 33h5M18 33h5M6 34h3M19 34h3M7 35h1M20 35h1" />
<path stroke="#ffffff" d="M3 33h1M24 33h1M4 34h1M23 34h1M5 35h1M22 35h1M6 36h1M21 36h1" />
<path stroke="#cccccc" d="M2 34h2M24 34h2M3 35h2M23 35h2M4 36h2M22 36h2" />
<path stroke="#101010" d="M21 37h1" />
<path stroke="#0c0c0c" d="M22 37h1" />
</svg>