<svg xmlns="http://www.w3.org/2000/svg" viewBox="0 -0.5 64 64" shape-rendering="crispEdges">
<metadata>Made with Pixels to Svg https://codepen.io/shshaw/pen/XbxvNj</metadata>
<path stroke="#000000" d="M23 10h14M22 11h1M37 11h1M21 12h1M38 12h1M21 13h1M38 13h1M21 14h1M26 14h8M38 14h1M21 15h1M25 15h10M38 15h1M21 16h1M38 16h1M21 17h18M21 18h1M24 18h1M35 18h1M38 18h1M21 19h1M23 19h1M36 19h1M38 19h1M21 20h2M37 20h2M21 21h1M38 21h1M21 22h1M38 22h1M21 23h1M38 23h1M21 24h1M38 24h1M16 25h4M21 25h1M38 25h1M16 26h1M19 26h1M21 26h1M38 26h1M16 27h1M19 27h1M22 27h1M37 27h1M16 28h1M19 28h1M23 28h1M36 28h1M16 29h1M19 29h1M23 29h14M16 30h1M19 30h4M37 30h1M16 31h1M21 31h1M38 31h2M17 32h1M21 32h1M38 32h3M18 33h1M21 33h1M38 33h1M41 33h1M19 34h3M38 34h1M41 34h1M21 35h1M38 35h1M41 35h1M21 36h1M38 36h1M41 36h1M21 37h1M38 37h4M21 38h1M38 38h1M41 38h1M21 39h18M41 39h1M21 40h1M38 40h4M21 41h1M38 41h1M21 42h1M38 42h1M21 43h1M27 43h6M38 43h1M21 44h1M26 44h1M33 44h1M38 44h1M21 45h1M26 45h1M33 45h1M38 45h1M21 46h1M26 46h1M33 46h1M38 46h1M21 47h6M33 47h6" />
<path stroke="#ffb304" d="M23 11h14M22 12h16M22 13h16M22 14h4M34 14h4M22 15h3M35 15h3M22 16h16" />
<path stroke="#2b2828" d="M22 18h2M36 18h2M22 19h1M37 19h1" />
<path stroke="#e67d42" d="M25 18h10" />
<path stroke="#f2ac64" d="M24 19h12M23 20h2M27 20h6M35 20h2M22 21h3M27 21h6M35 21h3M22 22h3M27 22h6M35 22h3M22 23h16M22 24h16M22 25h16M17 26h2M22 26h16M17 27h2M23 27h14M24 28h12M39 38h2M39 39h2" />
<path stroke="#644723" d="M25 20h2M33 20h2M25 21h2M33 21h2M25 22h2M33 22h2" />
<path stroke="#ff281f" d="M17 28h2M17 29h2M17 30h2M23 30h14M17 31h4M22 31h16M18 32h3M22 32h16M19 33h2M22 33h16M39 33h2M22 34h16M39 34h2M22 35h16M39 35h2M22 36h16M39 36h2M22 37h16M22 38h16" />
<path stroke="#b60400" d="M22 40h16M22 41h16M22 42h16M22 43h5M33 43h5M22 44h4M34 44h4M22 45h4M34 45h4" />
<path stroke="#ffffff" d="M22 46h4M34 46h4" />
</svg>