<svg xmlns="http://www.w3.org/2000/svg" viewBox="0 -0.5 64 64" shape-rendering="crispEdges">
<metadata>Made with Pixels to Svg https://codepen.io/shshaw/pen/XbxvNj</metadata>
<path stroke="#000000" d="M21 9h17M20 10h1M38 10h1M19 11h1M39 11h1M19 12h1M39 12h1M19 13h1M21 13h5M39 13h1M19 14h1M21 14h6M39 14h1M19 15h1M39 15h1M19 16h22M20 17h1M40 17h4M20 18h1M20 19h1M20 20h1M40 20h1M20 21h1M40 21h1M20 22h1M39 22h1M20 23h1M39 23h1M20 24h1M39 24h1M20 25h1M37 25h2M21 26h1M37 26h1M22 27h1M36 27h1M23 28h14M22 29h1M37 29h1M20 30h2M38 30h2M19 31h3M38 31h3M18 32h1M21 32h1M38 32h1M41 32h1M18 33h1M21 33h1M38 33h1M41 33h1M18 34h1M21 34h1M38 34h1M41 34h1M18 35h1M21 35h1M38 35h1M41 35h1M18 36h4M38 36h4M18 37h1M21 37h1M38 37h1M41 37h1M18 38h1M21 38h18M41 38h1M18 39h4M38 39h4M21 40h1M38 40h1M21 41h1M38 41h1M22 42h1M26 42h8M37 42h1M22 43h1M27 43h1M32 43h1M37 43h1M23 44h1M27 44h1M32 44h1M36 44h1M24 45h1M27 45h1M32 45h1M35 45h1M25 46h2M33 46h2" />
<path stroke="#ffb304" d="M21 10h17M20 11h19M20 12h19M20 13h1M26 13h13M20 14h1M27 14h12M20 15h19" />
<path stroke="#f2ac64" d="M21 17h9M21 18h12M21 19h2M25 19h5M32 19h2M21 20h2M25 20h5M32 20h3M21 21h2M25 21h5M32 21h4M21 22h16M21 23h16M21 24h16M21 25h16M22 26h15M23 27h13M19 37h2M39 37h2M19 38h2M39 38h2" />
<path stroke="#e67d42" d="M30 17h3M33 18h2M34 19h2M35 20h2M36 21h2M37 22h2M37 23h2M37 24h2" />
<path stroke="#060606" d="M33 17h2M39 17h1M35 18h2M39 18h1M36 19h1M38 19h2M37 20h2M38 21h1" />
<path stroke="#2b2828" d="M35 17h4M37 18h2M37 19h1" />
<path stroke="#644723" d="M23 19h2M30 19h2M23 20h2M30 20h2M23 21h2M30 21h2" />
<path stroke="#f07838" d="M39 20h1M39 21h1" />
<path stroke="#ff281f" d="M23 29h14M22 30h16M22 31h16M19 32h2M22 32h16M39 32h2M19 33h2M22 33h16M39 33h2M19 34h2M22 34h16M39 34h2M19 35h2M22 35h16M39 35h2M22 36h16M22 37h16" />
<path stroke="#b60400" d="M22 39h16M22 40h16M22 41h16M23 42h3M34 42h3M23 43h4M33 43h4M24 44h3M33 44h3" />
<path stroke="#ffffff" d="M25 45h2M33 45h2" />
</svg>