<svg xmlns="http://www.w3.org/2000/svg" viewBox="0 -0.5 64 64" shape-rendering="crispEdges">
<metadata>Made with Pixels to Svg https://codepen.io/shshaw/pen/XbxvNj</metadata>
<path stroke="#000000" d="M21 8h17M20 9h1M38 9h1M19 10h1M39 10h1M19 11h1M39 11h1M19 12h1M21 12h5M39 12h1M19 13h1M21 13h6M39 13h1M19 14h1M39 14h1M19 15h22M20 16h1M40 16h4M20 17h1M20 18h1M20 19h1M40 19h1M20 20h1M40 20h1M20 21h1M39 21h1M20 22h1M39 22h1M20 23h1M39 23h1M20 24h1M37 24h2M21 25h1M37 25h1M22 26h1M36 26h1M23 27h14M22 28h1M37 28h1M20 29h2M38 29h2M19 30h3M38 30h3M18 31h1M21 31h1M38 31h1M41 31h1M18 32h1M21 32h1M38 32h1M41 32h1M18 33h1M21 33h1M38 33h1M41 33h1M18 34h1M21 34h1M38 34h1M41 34h1M18 35h4M38 35h4M18 36h1M21 36h1M38 36h1M41 36h1M18 37h1M21 37h18M41 37h1M18 38h4M38 38h4M21 39h1M38 39h1M22 40h1M31 40h1M37 40h1M22 41h1M28 41h3M36 41h1M23 42h1M29 42h1M35 42h1M24 43h5M34 43h1M29 44h1M33 44h1M30 45h3" />
<path stroke="#ffb304" d="M21 9h17M20 10h19M20 11h19M20 12h1M26 12h13M20 13h1M27 13h12M20 14h19" />
<path stroke="#f2ac64" d="M21 16h9M21 17h12M21 18h2M25 18h5M32 18h2M21 19h2M25 19h5M32 19h3M21 20h2M25 20h5M32 20h4M21 21h16M21 22h16M21 23h16M21 24h16M22 25h15M23 26h13M19 36h2M39 36h2M19 37h2M39 37h2" />
<path stroke="#e67d42" d="M30 16h3M33 17h2M34 18h2M35 19h2M36 20h2M37 21h2M37 22h2M37 23h2" />
<path stroke="#060606" d="M33 16h2M39 16h1M35 17h2M39 17h1M36 18h1M38 18h2M37 19h2M38 20h1" />
<path stroke="#2b2828" d="M35 16h4M37 17h2M37 18h1" />
<path stroke="#644723" d="M23 18h2M30 18h2M23 19h2M30 19h2M23 20h2M30 20h2" />
<path stroke="#f07838" d="M39 19h1M39 20h1" />
<path stroke="#ff281f" d="M23 28h14M22 29h16M22 30h16M19 31h2M22 31h16M39 31h2M19 32h2M22 32h16M39 32h2M19 33h2M22 33h16M39 33h2M19 34h2M22 34h16M39 34h2M22 35h16M22 36h16" />
<path stroke="#b60400" d="M22 38h16M22 39h16M23 40h8M32 40h5M23 41h5M31 41h5M24 42h5M30 42h5M30 43h4M31 44h2" />
<path stroke="#ffffff" d="M29 43h1M30 44h1" />
</svg>