<svg xmlns="http://www.w3.org/2000/svg" viewBox="0 -0.5 28 38" shape-rendering="crispEdges">
<metadata>Made with Pixels to Svg https://codepen.io/shshaw/pen/XbxvNj</metadata>
<path stroke="#000000" d="M5 1h17M4 2h1M22 2h1M3 3h1M23 3h1M3 4h1M23 4h1M3 5h1M5 5h5M23 5h1M3 6h1M5 6h6M23 6h1M3 7h1M23 7h1M3 8h22M4 9h1M24 9h4M4 10h1M4 11h1M4 12h1M24 12h1M4 13h1M24 13h1M4 14h1M23 14h1M4 15h1M23 15h1M4 16h1M23 16h1M4 17h1M21 17h2M5 18h1M21 18h1M6 19h1M20 19h1M7 20h14M6 21h1M21 21h1M4 22h2M22 22h2M3 23h3M22 23h3M2 24h1M5 24h1M22 24h1M25 24h1M2 25h1M5 25h1M22 25h1M25 25h1M2 26h1M5 26h1M22 26h1M25 26h1M2 27h1M5 27h1M22 27h1M25 27h1M2 28h4M22 28h4M2 29h1M5 29h1M22 29h1M25 29h1M2 30h1M4 30h19M25 30h1M2 31h2M23 31h3M1 32h1M25 32h1M0 33h1M25 33h1M0 34h1M8 34h9M24 34h1M0 35h1M6 35h2M17 35h1M22 35h2M0 36h1M4 36h2M18 36h4M1 37h3" />
<path stroke="#ffb304" d="M5 2h17M4 3h19M4 4h19M4 5h1M10 5h13M4 6h1M11 6h12M4 7h19" />
<path stroke="#f2ac64" d="M5 9h9M5 10h12M5 11h2M9 11h5M16 11h2M5 12h2M9 12h5M16 12h3M5 13h2M9 13h5M16 13h4M5 14h16M5 15h16M5 16h16M5 17h16M6 18h15M7 19h13M3 29h2M23 29h2M3 30h1M23 30h2" />
<path stroke="#e67d42" d="M14 9h3M17 10h2M18 11h2M19 12h2M20 13h2M21 14h2M21 15h2M21 16h2" />
<path stroke="#060606" d="M17 9h2M23 9h1M19 10h2M23 10h1M20 11h1M22 11h2M21 12h2M22 13h1" />
<path stroke="#2b2828" d="M19 9h4M21 10h2M21 11h1" />
<path stroke="#644723" d="M7 11h2M14 11h2M7 12h2M14 12h2M7 13h2M14 13h2" />
<path stroke="#f07838" d="M23 12h1M23 13h1" />
<path stroke="#ff281f" d="M7 21h14M6 22h16M6 23h16M3 24h2M6 24h16M23 24h2M3 25h2M6 25h16M23 25h2M3 26h2M6 26h16M23 26h2M3 27h2M6 27h16M23 27h2M6 28h16M6 29h16" />
<path stroke="#b60400" d="M4 31h19M2 32h22M2 33h22M2 34h6M17 34h7M2 35h4M18 35h4" />
<path stroke="#ffffff" d="M24 32h1M1 33h1M24 33h1M1 34h1M1 35h1M1 36h3" />
</svg>