<svg xmlns="http://www.w3.org/2000/svg" viewBox="0 -0.5 28 38" shape-rendering="crispEdges">
<metadata>Made with Pixels to Svg https://codepen.io/shshaw/pen/XbxvNj</metadata>
<path stroke="#000000" d="M6 1h17M5 2h1M23 2h1M4 3h1M24 3h1M4 4h1M24 4h1M4 5h1M18 5h5M24 5h1M4 6h1M17 6h6M24 6h1M4 7h1M24 7h1M3 8h22M0 9h4M23 9h1M23 10h1M23 11h1M3 12h1M23 12h1M3 13h1M23 13h1M4 14h1M23 14h1M4 15h1M23 15h1M4 16h1M23 16h1M5 17h2M23 17h1M6 18h1M22 18h1M7 19h1M21 19h1M7 20h14M6 21h1M21 21h1M4 22h2M22 22h2M3 23h3M22 23h3M2 24h1M5 24h1M22 24h1M25 24h1M2 25h1M5 25h1M22 25h1M25 25h1M2 26h1M5 26h1M22 26h1M25 26h1M2 27h1M5 27h1M22 27h1M25 27h1M2 28h4M22 28h4M2 29h1M5 29h1M22 29h1M25 29h1M2 30h1M5 30h19M25 30h1M2 31h3M24 31h2M2 32h1M26 32h1M2 33h1M27 33h1M3 34h1M11 34h9M27 34h1M4 35h2M10 35h1M20 35h2M27 35h1M6 36h4M22 36h2M27 36h1M24 37h3" />
<path stroke="#ffb304" d="M6 2h17M5 3h19M5 4h19M5 5h13M23 5h1M5 6h12M23 6h1M5 7h19" />
<path stroke="#060606" d="M4 9h1M9 9h2M4 10h1M7 10h2M4 11h2M7 11h1M5 12h2M5 13h1" />
<path stroke="#2b2828" d="M5 9h4M5 10h2M6 11h1" />
<path stroke="#e67d42" d="M11 9h3M9 10h2M8 11h2M7 12h2M6 13h2M5 14h2M5 15h2M5 16h2" />
<path stroke="#f2ac64" d="M14 9h9M11 10h12M10 11h2M14 11h5M21 11h2M9 12h3M14 12h5M21 12h2M8 13h4M14 13h5M21 13h2M7 14h16M7 15h16M7 16h16M7 17h16M7 18h15M8 19h13M3 29h2M23 29h2M3 30h2M24 30h1" />
<path stroke="#644723" d="M12 11h2M19 11h2M12 12h2M19 12h2M12 13h2M19 13h2" />
<path stroke="#f07838" d="M4 12h1M4 13h1" />
<path stroke="#ff281f" d="M7 21h14M6 22h16M6 23h16M3 24h2M6 24h16M23 24h2M3 25h2M6 25h16M23 25h2M3 26h2M6 26h16M23 26h2M3 27h2M6 27h16M23 27h2M6 28h16M6 29h16" />
<path stroke="#b60400" d="M5 31h19M4 32h22M4 33h22M4 34h7M20 34h6M6 35h4M22 35h4" />
<path stroke="#ffffff" d="M3 32h1M3 33h1M26 33h1M26 34h1M26 35h1M24 36h3" />
</svg>