<svg xmlns="http://www.w3.org/2000/svg" viewBox="0 -0.5 28 38" shape-rendering="crispEdges">
<metadata>Made with Pixels to Svg https://codepen.io/shshaw/pen/XbxvNj</metadata>
<path stroke="#000000" d="M7 1h17M6 2h1M24 2h1M5 3h1M25 3h1M5 4h1M25 4h1M5 5h1M19 5h5M25 5h1M5 6h1M18 6h6M25 6h1M5 7h1M25 7h1M4 8h22M1 9h4M24 9h1M24 10h1M24 11h1M4 12h1M24 12h1M4 13h1M24 13h1M5 14h1M24 14h1M5 15h1M24 15h1M5 16h1M24 16h1M6 17h2M24 17h1M7 18h1M23 18h1M8 19h1M22 19h1M8 20h14M7 21h1M22 21h1M5 22h2M23 22h2M4 23h3M23 23h3M3 24h1M6 24h1M23 24h1M26 24h1M3 25h1M6 25h1M23 25h1M26 25h1M3 26h1M6 26h1M23 26h1M26 26h1M3 27h1M6 27h1M23 27h1M26 27h1M3 28h4M23 28h4M3 29h1M6 29h1M23 29h1M26 29h1M3 30h1M6 30h18M26 30h1M3 31h4M23 31h4M6 32h1M23 32h1M7 33h1M13 33h1M22 33h1M8 34h2M13 34h5M22 34h1M9 35h2M13 35h1M16 35h1M21 35h1M10 36h1M13 36h1M16 36h1M20 36h1M10 37h4M17 37h3" />
<path stroke="#ffb304" d="M7 2h17M6 3h19M6 4h19M6 5h13M24 5h1M6 6h12M24 6h1M6 7h19" />
<path stroke="#060606" d="M5 9h1M10 9h2M5 10h1M8 10h2M5 11h2M8 11h1M6 12h2M6 13h1" />
<path stroke="#2b2828" d="M6 9h4M6 10h2M7 11h1" />
<path stroke="#e67d42" d="M12 9h3M10 10h2M9 11h2M8 12h2M7 13h2M6 14h2M6 15h2M6 16h2" />
<path stroke="#f2ac64" d="M15 9h9M12 10h12M11 11h2M15 11h5M22 11h2M10 12h3M15 12h5M22 12h2M9 13h4M15 13h5M22 13h2M8 14h16M8 15h16M8 16h16M8 17h16M8 18h15M9 19h13M4 29h2M24 29h2M4 30h2M24 30h2" />
<path stroke="#644723" d="M13 11h2M20 11h2M13 12h2M20 12h2M13 13h2M20 13h2" />
<path stroke="#f07838" d="M5 12h1M5 13h1" />
<path stroke="#ff281f" d="M8 21h14M7 22h16M7 23h16M4 24h2M7 24h16M24 24h2M4 25h2M7 25h16M24 25h2M4 26h2M7 26h16M24 26h2M4 27h2M7 27h16M24 27h2M7 28h16M7 29h16" />
<path stroke="#b60400" d="M7 31h16M7 32h16M8 33h5M14 33h8M10 34h3M18 34h4M11 35h2M18 35h3M18 36h2" />
<path stroke="#ffffff" d="M17 35h1M11 36h2M17 36h1" />
</svg>