<svg xmlns="http://www.w3.org/2000/svg" viewBox="0 -0.5 28 38" shape-rendering="crispEdges">
<metadata>Made with Pixels to Svg https://codepen.io/shshaw/pen/XbxvNj</metadata>
<path stroke="#000000" d="M4 1h17M3 2h1M21 2h1M2 3h1M22 3h1M2 4h1M22 4h1M2 5h1M4 5h5M22 5h1M2 6h1M4 6h6M22 6h1M2 7h1M22 7h1M2 8h22M3 9h1M23 9h4M3 10h1M3 11h1M3 12h1M23 12h1M3 13h1M23 13h1M3 14h1M22 14h1M3 15h1M22 15h1M3 16h1M22 16h1M3 17h1M20 17h2M4 18h1M20 18h1M5 19h1M19 19h1M6 20h14M5 21h1M20 21h1M3 22h2M21 22h2M2 23h3M21 23h3M1 24h1M4 24h1M21 24h1M24 24h1M1 25h1M4 25h1M21 25h1M24 25h1M1 26h1M4 26h1M21 26h1M24 26h1M1 27h1M4 27h1M21 27h1M24 27h1M1 28h4M21 28h4M1 29h1M4 29h1M21 29h1M24 29h1M1 30h1M4 30h18M24 30h1M1 31h4M21 31h4M4 32h1M21 32h1M5 33h1M14 33h1M20 33h1M5 34h1M10 34h5M18 34h2M6 35h1M11 35h1M14 35h1M17 35h2M7 36h1M11 36h1M14 36h1M17 36h1M8 37h3M14 37h4" />
<path stroke="#ffb304" d="M4 2h17M3 3h19M3 4h19M3 5h1M9 5h13M3 6h1M10 6h12M3 7h19" />
<path stroke="#f2ac64" d="M4 9h9M4 10h12M4 11h2M8 11h5M15 11h2M4 12h2M8 12h5M15 12h3M4 13h2M8 13h5M15 13h4M4 14h16M4 15h16M4 16h16M4 17h16M5 18h15M6 19h13M2 29h2M22 29h2M2 30h2M22 30h2" />
<path stroke="#e67d42" d="M13 9h3M16 10h2M17 11h2M18 12h2M19 13h2M20 14h2M20 15h2M20 16h2" />
<path stroke="#060606" d="M16 9h2M22 9h1M18 10h2M22 10h1M19 11h1M21 11h2M20 12h2M21 13h1" />
<path stroke="#2b2828" d="M18 9h4M20 10h2M20 11h1" />
<path stroke="#644723" d="M6 11h2M13 11h2M6 12h2M13 12h2M6 13h2M13 13h2" />
<path stroke="#f07838" d="M22 12h1M22 13h1" />
<path stroke="#ff281f" d="M6 21h14M5 22h16M5 23h16M2 24h2M5 24h16M22 24h2M2 25h2M5 25h16M22 25h2M2 26h2M5 26h16M22 26h2M2 27h2M5 27h16M22 27h2M5 28h16M5 29h16" />
<path stroke="#b60400" d="M5 31h16M5 32h16M6 33h8M15 33h5M6 34h4M15 34h3M7 35h3M15 35h2M8 36h2" />
<path stroke="#ffffff" d="M10 35h1M10 36h1M15 36h2" />
</svg>