<svg xmlns="http://www.w3.org/2000/svg" viewBox="0 -0.5 59 27" shape-rendering="crispEdges">
<metadata>Made with Pixels to Svg https://codepen.io/shshaw/pen/XbxvNj</metadata>
<path stroke="#000000" d="M18 0h3M22 0h1M17 1h1M21 1h1M23 1h1M16 2h1M24 2h2M14 3h2M26 3h1M13 4h1M27 4h2M12 5h1M29 5h1M12 6h1M30 6h1M52 6h2M11 7h1M30 7h1M50 7h2M54 7h1M11 8h1M31 8h1M38 8h3M49 8h1M55 8h1M10 9h1M32 9h1M36 9h2M41 9h1M49 9h1M55 9h1M9 10h1M33 10h3M42 10h2M50 10h5M8 11h1M44 11h1M8 12h1M45 12h1M6 13h2M45 13h1M5 14h1M46 14h1M51 14h2M5 15h1M47 15h1M49 15h2M53 15h1M4 16h1M48 16h1M54 16h1M4 17h1M55 17h1M4 18h1M56 18h1M5 19h1M57 19h1M5 20h1M57 20h1M5 21h1M58 21h1M6 22h1M58 22h1M1 23h2M6 23h1M58 23h1M0 24h1M3 24h1M7 24h1M57 24h1M1 25h2M8 25h2M55 25h2M9 26h46" />
<path stroke="#f5f5f5" d="M18 1h1M52 7h2M50 8h5M50 9h5M52 15h1M53 16h1M54 17h1M55 18h1M55 19h2M55 20h2M55 21h3M56 22h2M56 23h2M1 24h2M49 24h2M56 24h1M48 25h4" />
<path stroke="#e6e6e6" d="M19 1h2M22 1h1M17 2h1M21 2h3M22 3h4M14 4h1M23 4h4M25 5h4M26 6h4M26 7h4M26 8h5M26 9h6M38 9h3M27 10h6M36 10h1M40 10h2M9 11h1M27 11h9M42 11h2M9 12h1M26 12h9M43 12h2M8 13h1M25 13h7M43 13h2M6 14h1M24 14h7M44 14h2M24 15h7M44 15h3M5 16h1M24 16h7M44 16h4M5 17h1M23 17h9M44 17h4M5 18h2M21 18h11M44 18h3M6 19h2M18 19h14M43 19h4M6 20h5M17 20h16M42 20h5M6 21h7M16 21h9M26 21h8M38 21h7M46 21h1M7 22h17M25 22h10M37 22h7M45 22h3M7 23h15M25 23h18M45 23h4M8 24h10M26 24h14M45 24h4M10 25h2M31 25h6" />
<path stroke="#ffffff" d="M18 2h3M16 3h6M15 4h8M13 5h12M13 6h13M12 7h14M12 8h14M11 9h15M10 10h17M37 10h3M10 11h17M36 11h6M10 12h16M35 12h8M9 13h16M32 13h11M7 14h17M31 14h13M6 15h18M31 15h13M51 15h1M6 16h18M31 16h13M49 16h4M6 17h17M32 17h12M48 17h6M7 18h14M32 18h12M47 18h8M8 19h10M32 19h11M47 19h8M11 20h6M33 20h9M47 20h8M13 21h3M34 21h4M47 21h8M35 22h2M48 22h8M50 23h6M51 24h5M52 25h3" />
<path stroke="#6d8bc8" d="M25 21h1M45 21h1M24 22h1M44 22h1M22 23h3M43 23h2M18 24h8M40 24h5M12 25h19M37 25h11" />
<path stroke="#efefef" d="M49 23h1" />
</svg>