<svg xmlns="http://www.w3.org/2000/svg" viewBox="0 -0.5 28 13" shape-rendering="crispEdges">
<metadata>Made with Pixels to Svg https://codepen.io/shshaw/pen/XbxvNj</metadata>
<path stroke="#000000" d="M2 0h2M1 1h1M4 1h1M0 2h1M5 2h1M15 2h3M0 3h1M5 3h1M14 3h1M18 3h2M1 4h4M12 4h2M20 4h1M10 5h2M21 5h1M5 6h3M9 6h1M22 6h2M4 7h2M8 7h1M24 7h1M4 8h1M25 8h1M2 9h2M26 9h1M1 10h1M27 10h1M1 11h1M27 11h1M2 12h25" />
<path stroke="#f5f5f5" d="M2 1h2M1 2h4M1 3h4M2 10h1M2 11h1" />
<path stroke="#ffffff" d="M15 3h3M14 4h6M13 5h8M10 6h2M13 6h8M6 7h2M9 7h2M14 7h8M5 8h3M15 8h5M4 9h4M16 9h3M3 10h5" />
<path stroke="#e6e6e6" d="M12 5h1M12 6h1M21 6h1M11 7h3M22 7h2M8 8h7M20 8h5M8 9h2M11 9h5M19 9h3M23 9h3M8 10h1M11 10h10M24 10h3M3 11h1M13 11h5M26 11h1" />
<path stroke="#6d8bc8" d="M10 9h1M22 9h1M9 10h2M21 10h3M4 11h9M18 11h8" />
</svg>