<svg xmlns="http://www.w3.org/2000/svg" viewBox="0 -0.5 55 26" shape-rendering="crispEdges">
<metadata>Made with Pixels to Svg https://codepen.io/shshaw/pen/XbxvNj</metadata>
<path stroke="#000000" d="M23 0h8M21 1h2M31 1h2M19 2h2M33 2h1M16 3h3M34 3h1M15 4h1M35 4h1M10 5h5M35 5h1M9 6h1M36 6h2M7 7h2M38 7h1M6 8h1M39 8h1M42 8h2M4 9h2M40 9h2M44 9h3M3 10h1M47 10h1M2 11h1M48 11h1M2 12h1M49 12h1M2 13h1M50 13h2M1 14h1M52 14h1M0 15h1M53 15h1M0 16h1M54 16h1M0 17h1M54 17h1M0 18h1M54 18h1M1 19h1M53 19h1M2 20h2M45 20h1M51 20h2M4 21h1M40 21h2M44 21h1M46 21h2M50 21h1M5 22h1M9 22h3M19 22h1M39 22h1M42 22h2M48 22h2M6 23h3M12 23h7M20 23h1M36 23h3M21 24h4M35 24h2M25 25h10" />
<path stroke="#ffffff" d="M23 1h7M22 2h10M19 3h14M17 4h17M16 5h18M15 6h19M15 7h19M7 8h4M15 8h19M6 9h6M15 9h19M42 9h2M4 10h8M16 10h17M38 10h8M3 11h12M17 11h16M37 11h10M3 12h13M17 12h16M36 12h12M3 13h13M17 13h15M35 13h15M2 14h14M18 14h13M35 14h11M48 14h3M1 15h15M19 15h10M35 15h10M1 16h15M35 16h9M1 17h3M7 17h8M38 17h5M1 18h2M8 18h6" />
<path stroke="#e6e6e6" d="M30 1h1M32 2h1M33 3h1M34 4h1M34 5h1M10 6h5M34 6h2M9 7h6M34 7h4M11 8h4M34 8h5M12 9h3M34 9h6M12 10h4M33 10h5M15 11h2M33 11h4M47 11h1M16 12h1M33 12h3M48 12h1M16 13h1M32 13h3M16 14h2M31 14h4M46 14h2M51 14h1M16 15h3M29 15h6M45 15h8M16 16h19M45 16h9M4 17h3M15 17h23M43 17h11M3 18h5M14 18h38M2 19h13M16 19h19M36 19h13M4 20h8M15 20h4M20 20h16M39 20h5M5 21h5M14 21h5M21 21h16M45 21h1M22 22h14M25 23h10" />
<path stroke="#f5f5f5" d="M21 2h1M16 4h1M15 5h1M46 10h1M44 16h1" />
<path stroke="#6d8bc8" d="M52 18h2M15 19h1M35 19h1M49 19h4M12 20h3M19 20h1M36 20h3M44 20h1M46 20h5M10 21h4M19 21h2M37 21h3M42 21h2M48 21h2M6 22h3M12 22h7M20 22h2M36 22h3M21 23h4M35 23h1M25 24h10" />
</svg>