<svg xmlns="http://www.w3.org/2000/svg" viewBox="0 -0.5 16 16" shape-rendering="crispEdges">
<metadata>Made with Pixels to Svg https://codepen.io/shshaw/pen/XbxvNj</metadata>
<path stroke="#000000" d="M7 1h2M6 2h1M9 2h1M6 3h1M9 3h1M6 4h1M9 4h1M6 5h1M9 5h1M6 6h1M9 6h1M6 7h1M9 7h1M6 8h1M9 8h1M6 9h1M9 9h1M6 10h1M9 10h1M6 11h1M9 11h1M6 12h1M9 12h1M6 13h1M9 13h1M7 14h2" />
<path stroke="#f6e338" d="M7 2h2M7 3h2M7 4h2M7 5h2M7 6h2" />
<path stroke="#eac004" d="M7 7h2M7 8h2M7 9h2M7 10h2M7 11h2M7 12h2M7 13h2" />
</svg>