<svg xmlns="http://www.w3.org/2000/svg" viewBox="0 -0.5 16 16" shape-rendering="crispEdges">
<metadata>Made with Pixels to Svg https://codepen.io/shshaw/pen/XbxvNj</metadata>
<path stroke="#000000" d="M7 1h2M6 2h1M9 2h1M6 3h1M9 3h1M5 4h1M10 4h1M0 5h5M11 5h5M0 6h1M15 6h1M1 7h1M6 7h1M9 7h1M14 7h1M2 8h1M6 8h1M9 8h1M13 8h1M3 9h1M12 9h1M4 10h1M11 10h1M3 11h1M12 11h1M2 12h1M7 12h2M13 12h1M1 13h1M5 13h2M9 13h2M14 13h1M0 14h5M11 14h5" />
<path stroke="#eac004" d="M7 2h2M7 3h2M6 4h1M9 4h1M5 5h1M10 5h1M1 6h1M14 6h1M2 7h1M13 7h1M3 8h1M12 8h1M4 9h1M11 9h1M4 11h1M11 11h1M3 12h1M6 12h1M9 12h1M12 12h1M2 13h1M4 13h1M11 13h1M13 13h1" />
<path stroke="#f6e338" d="M7 4h2M6 5h4M2 6h12M3 7h3M7 7h2M10 7h3M4 8h2M7 8h2M10 8h2M5 9h6M5 10h6M5 11h6M4 12h2M10 12h2M3 13h1M12 13h1" />
</svg>